<svg preserveAspectRatio="none" width="273" height="353" viewBox="0 0 273 353" fill="none" xmlns="http://www.w3.org/2000/svg">
<path d="M165.401 0.0668813C159.701 0.664078 154.386 3.81536 150.086 9.14627C148.937 10.5707 146.984 13.5386 145.788 15.6773C144.57 17.8572 138.608 29.8428 104.437 98.8034C100.695 106.355 83.601 140.83 47.9147 212.796C38.245 232.296 28.8998 251.148 27.1476 254.687C25.3953 258.227 20.0879 268.925 15.3532 278.463C3.6915 301.954 2.71877 303.987 1.54214 307.347C0.336893 310.789 -0.0771288 313.112 0.0115391 315.936C0.083403 318.224 0.331292 319.36 1.1094 320.963C2.17234 323.155 3.73953 324.662 6.23522 325.896C8.60375 327.066 9.18903 327.244 22.92 330.962C27.1806 332.116 31.5246 333.294 32.5734 333.581C33.6221 333.87 38.2611 335.131 42.8822 336.383C47.5033 337.637 53.4294 339.246 56.0513 339.959C58.6732 340.671 64.3043 342.2 68.5649 343.356C79.4972 346.321 85.2398 347.881 90.7412 349.38C99.8762 351.868 102.337 352.302 105.569 352C112.081 351.392 117.92 347.336 122.644 340.137C124.641 337.095 125.989 334.536 130.302 325.598C133.775 318.399 138.868 307.857 143.11 299.081C145.028 295.115 147.709 289.564 149.069 286.746C150.429 283.927 153.11 278.377 155.027 274.411C158.68 266.854 163.021 257.867 168.674 246.166C170.526 242.332 173.984 235.172 176.361 230.256C182.051 218.48 186.889 208.467 190.005 202.011C191.397 199.127 197.539 186.417 203.652 173.766C209.766 161.115 215.532 149.183 216.465 147.249C218.57 142.886 224.526 130.556 233.506 111.973C237.292 104.14 241.529 95.3711 242.921 92.487C245.714 86.703 249.992 77.8479 256.567 64.242C268.777 38.9759 268.904 38.7068 270.035 35.8778C271.8 31.4671 272.497 28.0042 272.197 25.132C271.798 21.3035 270.039 18.642 266.82 16.9999C264.191 15.6585 262.711 15.3224 250.701 13.3401L242.988 12.067L242.443 12.275C241.578 12.6053 240.882 13.4252 239.943 15.2182C238.769 17.4578 237.848 18.7955 236.67 19.9685C234.346 22.282 231.689 23.543 229.138 23.543C228.402 23.543 226.808 23.3272 223.824 22.8233C207.737 20.1065 192.012 17.4259 191.258 17.2712C188.771 16.7616 187.461 15.4008 187.077 12.9266C186.823 11.2878 187.238 9.55672 188.594 6.59028C189.392 4.84779 189.532 4.01653 189.119 3.49429C188.977 3.31565 188.663 3.11352 188.421 3.04523C187.791 2.86754 173.794 0.580654 171.621 0.300469C169.453 0.0206403 166.794 -0.0791111 165.401 0.0668813Z" fill="white"/>
</svg>
