<svg preserveAspectRatio="none" width="223" height="482" viewBox="0 0 223 482" fill="none" xmlns="http://www.w3.org/2000/svg">
<path d="M31.2869 0.0788413C27.3591 0.19853 23.6605 0.580655 20.889 1.15282C12.775 2.82817 6.48016 7.61904 3.19429 14.6199C1.6817 17.8426 0.887231 20.9758 0.305869 26.0114C0.0860512 27.9149 0.0628434 44.8442 0.0149682 238.628C-0.0221059 388.52 0.00839996 450.057 0.120936 452.235C0.476643 459.109 1.54887 463.932 3.57831 467.785C7.61676 475.453 14.5515 479.837 24.5727 481.059C28.6541 481.557 28.8074 481.558 107.552 481.614C186.639 481.671 192.693 481.634 197.172 481.142C205.018 480.269 210.092 478.077 214.553 473.631C218.942 469.255 221.154 464.167 222.049 456.39C222.175 455.3 222.342 452.705 222.42 450.625C222.614 445.475 222.615 36.1883 222.421 31.0407C222.269 27.0234 222.021 24.3775 221.554 21.7997C219.553 10.7493 212.236 3.28473 201.258 1.09079C196.434 0.126716 191.977 -0.0484366 173.745 0.0100937L159.733 0.0550496L159.124 0.380105C158.79 0.558907 158.378 0.900018 158.209 1.13793C157.575 2.02699 157.457 2.57624 157.31 5.28746C157.155 8.1445 156.921 9.56558 156.358 11.0661C155.018 14.6341 151.678 17.6505 147.953 18.6584C147.367 18.8167 146.208 19.0145 145.376 19.0977C143.194 19.3161 79.0411 19.3055 77.0149 19.0866C72.5323 18.6019 69.1467 16.5002 66.9836 12.8592C65.8057 10.8765 65.3109 8.77549 65.154 5.09071C65.0232 2.02188 64.6648 1.13224 63.2524 0.370034L62.6685 0.0550496L47.6346 0.0468758C39.3659 0.042497 32.0095 0.0568012 31.2869 0.0788413Z" fill="white"/>
</svg>
