<svg preserveAspectRatio="none" width="223" height="481" viewBox="0 0 223 481" fill="none" xmlns="http://www.w3.org/2000/svg">
<path d="M31.2435 0.0787317C27.3211 0.198254 23.6276 0.579849 20.86 1.15122C12.7573 2.82424 6.47116 7.60846 3.18985 14.5996C1.67936 17.8178 0.885998 20.9466 0.305444 25.9753C0.0859316 27.8761 0.0627561 44.7819 0.0149474 238.297C-0.0220752 387.98 0.00838829 449.432 0.120768 451.606C0.475981 458.471 1.54672 463.287 3.57334 467.135C7.60618 474.792 14.5313 479.171 24.5386 480.391C28.6143 480.888 28.7673 480.889 107.402 480.944C186.38 481.001 192.426 480.965 196.898 480.474C204.734 479.602 209.8 477.413 214.254 472.973C218.637 468.603 220.847 463.522 221.741 455.756C221.866 454.667 222.034 452.076 222.111 449.999C222.305 444.856 222.306 36.138 222.112 30.9975C221.961 26.9858 221.713 24.3437 221.246 21.7694C219.248 10.7344 211.941 3.28017 200.979 1.08927C196.161 0.12654 191.71 -0.0483693 173.503 0.0100797L159.511 0.0549732L158.903 0.379577C158.569 0.558131 158.158 0.898767 157.989 1.13635C157.356 2.02417 157.238 2.57266 157.091 5.28012C156.937 8.13318 156.703 9.55229 156.141 11.0507C154.803 14.6137 151.468 17.626 147.748 18.6324C147.162 18.7906 146.005 18.9881 145.174 19.0712C142.995 19.2892 78.9313 19.2787 76.9079 19.0601C72.4315 18.576 69.0507 16.4773 66.8905 12.8413C65.7143 10.8613 65.2201 8.7633 65.0634 5.08363C64.9328 2.01907 64.575 1.13067 63.1645 0.36952L62.5815 0.0549732L47.5684 0.0468107C39.3112 0.042438 31.965 0.0567223 31.2435 0.0787317Z" fill="white"/>
</svg>
