<svg preserveAspectRatio="none" width="202" height="387" viewBox="0 0 202 387" fill="none" xmlns="http://www.w3.org/2000/svg">
<path d="M123.172 0.0240406C121.861 0.146674 119.754 0.468572 118.107 0.797978C115.657 1.28768 98.7689 5.17048 98.3168 5.34793C97.4487 5.68854 96.976 6.35438 96.8695 7.38646C96.8328 7.74185 96.9186 8.81075 97.0718 9.90563C97.7087 14.4597 96.9254 17.5187 94.4853 20.0063C93.5737 20.9356 92.6413 21.5385 91.4484 21.9698C90.71 22.2369 55.0398 30.4434 48.5672 31.8354C47.1549 32.1391 45.4883 32.094 44.3208 31.7207C42.3549 31.0916 40.5254 29.4985 39.4791 27.5043C38.8143 26.237 38.5282 25.3783 38.123 23.4334C37.7271 21.5332 37.4627 20.8251 36.9775 20.3682C36.3971 19.8213 35.9912 19.7265 35.025 19.9125C33.6871 20.1701 19.2487 23.5126 16.9387 24.0995C11.1349 25.5741 8.10454 27.0637 5.3488 29.7971C0.951637 34.1586 -0.669412 40.1516 0.246704 48.6599C0.577659 51.7329 0.687659 52.3899 4.06622 71.4556C4.8852 76.0767 6.16719 83.3167 6.91527 87.5445C7.66334 91.7723 8.9501 99.0391 9.77481 103.693C10.5995 108.347 11.8059 115.158 12.4558 118.829C16.1967 139.959 18.2508 151.559 19.9052 160.898C20.9272 166.666 22.7506 176.963 23.9574 183.78C25.1642 190.597 27.068 201.349 28.1882 207.675C29.3083 214.001 31.1342 224.311 32.2457 230.587C33.3572 236.863 35.1804 247.16 36.2973 253.469C37.4143 259.778 38.623 266.602 38.9832 268.634C39.3435 270.666 39.8755 273.67 40.1654 275.308C40.4552 276.947 41.367 282.095 42.1916 286.749C43.0163 291.403 44.303 298.671 45.051 302.898C45.7991 307.125 47.086 314.392 47.9107 319.046C48.7355 323.7 49.8893 330.217 50.4747 333.526C51.0601 336.836 51.9669 341.958 52.4897 344.908C53.0127 347.857 53.9289 353.032 54.5257 356.408C56.3287 366.606 56.9738 369.597 58.0524 372.762C60.2894 379.324 64.3222 383.75 69.7021 385.548C71.3281 386.092 72.7155 386.325 74.7862 386.405C77.6718 386.516 79.3999 386.318 91.1606 384.527C94.1827 384.067 98.7468 383.373 101.303 382.985C103.86 382.596 109.33 381.766 113.459 381.138C122.444 379.772 128.682 378.824 135.03 377.86C137.619 377.467 141.856 376.823 144.445 376.43C147.034 376.037 151.258 375.395 153.831 375.004C156.404 374.613 163.12 373.595 168.757 372.74C184.72 370.324 186.135 370.072 189.059 369.138C193.623 367.68 196.82 365.208 198.945 361.494C201.366 357.263 201.997 352.073 200.983 344.729C200.625 342.131 200.245 339.927 197.598 325.065C196.262 317.56 194.385 307.021 193.428 301.646C192.473 296.272 191.21 289.192 190.627 285.915C189.1 277.355 187.1 266.128 185.677 258.117C185.249 255.708 184.634 252.262 184.31 250.46C183.987 248.658 183.155 243.991 182.462 240.091C181.169 232.819 180.47 228.899 178.599 218.401C178.01 215.092 176.615 207.262 175.501 201.001C174.386 194.741 173.202 188.092 172.869 186.223C172.535 184.355 171.968 181.164 171.608 179.132C171.248 177.1 170.823 174.714 170.663 173.829C170.393 172.334 168.66 162.608 166.841 152.377C166.416 149.984 165.857 146.847 165.598 145.405C165.339 143.963 164.375 138.546 163.453 133.368C162.532 128.19 161.215 120.789 160.526 116.922C159.836 113.054 158.924 107.933 158.499 105.54C156.758 95.7669 156.138 92.2876 155.41 88.2C154.989 85.8403 154.162 81.2013 153.573 77.8911C152.176 70.0462 150.333 59.7003 148.626 50.1228C147.873 45.895 146.475 38.0383 145.52 32.6634C143.118 19.1479 142.569 16.5251 141.462 13.2522C138.597 4.78196 133.026 0.178733 125.437 0.0118845C124.486 -0.00897148 123.467 -0.000781735 123.172 0.0240406Z" fill="white"/>
</svg>
