<svg preserveAspectRatio="none" width="210" height="371" viewBox="0 0 210 371" fill="none" xmlns="http://www.w3.org/2000/svg">
<path d="M89.7679 0.0511637C86.115 0.229572 83.3382 0.863595 80.7028 2.12079C77.5608 3.61981 74.5676 6.3057 72.4068 9.56496C71.2762 11.2702 69.9065 14.1826 69.0997 16.5964C68.0092 19.8593 67.4844 22.0404 65.1711 32.9237C62.2041 46.8823 58.2719 65.3766 57.9492 66.8892C57.7257 67.938 56.2824 74.7221 54.7419 81.9651C47.9414 113.941 44.9404 128.056 42.3256 140.362C40.7866 147.606 39.3425 154.389 39.1164 155.438C38.8903 156.487 37.0128 165.308 34.9442 175.043C32.8757 184.777 31.0003 193.598 30.7766 194.647C30.553 195.696 29.1099 202.48 27.5696 209.723C26.0295 216.967 23.2409 230.079 21.3728 238.862C19.5047 247.645 16.7107 260.785 15.1639 268.06C13.6171 275.336 12.0882 282.523 11.7663 284.03C11.4445 285.538 10.9136 288.031 10.5867 289.572C10.2596 291.113 8.73154 298.298 7.19081 305.542C0.228358 338.272 0.57004 336.541 0.139095 341.27C-0.046464 343.307 -0.0464641 343.573 0.13969 345.322C0.373516 347.518 0.640354 348.816 1.16187 350.293C2.72191 354.709 5.79322 357.615 10.4093 359.041C12.7458 359.765 15.0528 360.126 21.8965 360.841C27.2143 361.398 34.0269 362.111 42.8716 363.04C46.3129 363.4 55.564 364.369 63.4297 365.19C71.2954 366.012 80.5466 366.98 83.9878 367.341C91.0346 368.079 100.052 369.024 108.36 369.894C111.44 370.217 114.631 370.549 115.451 370.634C116.29 370.721 118.423 370.79 120.337 370.79C124.216 370.79 125.152 370.674 127.501 369.897C130.591 368.875 132.939 367.353 135.362 364.8C138.527 361.466 140.647 357.139 142.267 350.71C143.031 347.674 143.206 346.834 150.322 311.918C168.806 221.233 174.081 195.347 175.219 189.761C175.9 186.418 180.672 163.008 185.824 137.74C209.765 20.2959 208.625 25.9505 209.145 22.1382C209.387 20.3623 209.354 15.4404 209.089 14.0388C208.358 10.1591 206.417 7.00921 203.582 5.09582C201.174 3.47072 198.508 2.72514 193.774 2.35319C192.191 2.22877 173.227 1.74038 172.97 1.81737C172.895 1.83977 172.685 1.89078 172.503 1.93071C172.072 2.02545 171.268 2.75768 170.984 3.31531C170.86 3.55748 170.541 4.62149 170.275 5.67967C169.523 8.67375 168.978 9.92404 167.687 11.6193C166.218 13.5512 164.252 14.9175 162.042 15.5444C161.371 15.7348 160.854 15.7593 157.937 15.7398C152.838 15.7057 117.742 14.7537 117.016 14.6299C114.884 14.2664 113.328 13.1218 112.409 11.2418C112.182 10.7784 111.905 10.0506 111.792 9.62455C111.493 8.49606 111.525 6.37054 111.867 4.55952C112.329 2.11877 112.224 1.13937 111.447 0.630127C111.038 0.362217 111.023 0.361502 101.09 0.146267C93.4962 -0.0183167 91.5293 -0.0348823 89.7679 0.0511637Z" fill="white"/>
</svg>
